<svg xmlns="http://www.w3.org/2000/svg" viewBox="0 0 32 32">
  <circle cx="16" cy="16" r="14" fill="#fefcf6" stroke="#5a5a5a" stroke-width="1"/>
  <path d="M 5 10 Q 13 16 5 22" fill="none" stroke="#c0392b" stroke-width="1.6" stroke-linecap="round"/>
  <path d="M 27 10 Q 19 16 27 22" fill="none" stroke="#c0392b" stroke-width="1.6" stroke-linecap="round"/>
  <g stroke="#c0392b" stroke-width="0.9" stroke-linecap="round">
    <path d="M 7 11 L 6 9.5"/>
    <path d="M 8.5 12.5 L 7.5 11"/>
    <path d="M 9.5 14 L 8.5 12.5"/>
    <path d="M 9.5 18 L 8.5 19.5"/>
    <path d="M 8.5 19.5 L 7.5 21"/>
    <path d="M 7 21 L 6 22.5"/>
    <path d="M 25 11 L 26 9.5"/>
    <path d="M 23.5 12.5 L 24.5 11"/>
    <path d="M 22.5 14 L 23.5 12.5"/>
    <path d="M 22.5 18 L 23.5 19.5"/>
    <path d="M 23.5 19.5 L 24.5 21"/>
    <path d="M 25 21 L 26 22.5"/>
  </g>
</svg>
